%TF.GenerationSoftware,KiCad,Pcbnew,9.0.6*%
%TF.CreationDate,2025-11-18T16:50:13-05:00*%
%TF.ProjectId,Rev. 3,5265762e-2033-42e6-9b69-6361645f7063,rev?*%
%TF.SameCoordinates,Original*%
%TF.FileFunction,Soldermask,Top*%
%TF.FilePolarity,Negative*%
%FSLAX46Y46*%
G04 Gerber Fmt 4.6, Leading zero omitted, Abs format (unit mm)*
G04 Created by KiCad (PCBNEW 9.0.6) date 2025-11-18 16:50:13*
%MOMM*%
%LPD*%
G01*
G04 APERTURE LIST*
G04 Aperture macros list*
%AMRoundRect*
0 Rectangle with rounded corners*
0 $1 Rounding radius*
0 $2 $3 $4 $5 $6 $7 $8 $9 X,Y pos of 4 corners*
0 Add a 4 corners polygon primitive as box body*
4,1,4,$2,$3,$4,$5,$6,$7,$8,$9,$2,$3,0*
0 Add four circle primitives for the rounded corners*
1,1,$1+$1,$2,$3*
1,1,$1+$1,$4,$5*
1,1,$1+$1,$6,$7*
1,1,$1+$1,$8,$9*
0 Add four rect primitives between the rounded corners*
20,1,$1+$1,$2,$3,$4,$5,0*
20,1,$1+$1,$4,$5,$6,$7,0*
20,1,$1+$1,$6,$7,$8,$9,0*
20,1,$1+$1,$8,$9,$2,$3,0*%
G04 Aperture macros list end*
%ADD10RoundRect,0.100000X0.100000X-0.130000X0.100000X0.130000X-0.100000X0.130000X-0.100000X-0.130000X0*%
%ADD11RoundRect,0.100000X-0.100000X0.130000X-0.100000X-0.130000X0.100000X-0.130000X0.100000X0.130000X0*%
%ADD12RoundRect,0.150000X0.512500X0.150000X-0.512500X0.150000X-0.512500X-0.150000X0.512500X-0.150000X0*%
%ADD13RoundRect,0.150000X0.150000X0.200000X-0.150000X0.200000X-0.150000X-0.200000X0.150000X-0.200000X0*%
%ADD14C,1.727200*%
%ADD15R,1.727200X1.727200*%
%ADD16RoundRect,0.100000X-0.130000X-0.100000X0.130000X-0.100000X0.130000X0.100000X-0.130000X0.100000X0*%
%ADD17RoundRect,0.100000X0.130000X0.100000X-0.130000X0.100000X-0.130000X-0.100000X0.130000X-0.100000X0*%
%ADD18RoundRect,0.162500X0.162500X-0.650000X0.162500X0.650000X-0.162500X0.650000X-0.162500X-0.650000X0*%
G04 APERTURE END LIST*
D10*
%TO.C,R2*%
X216967767Y-78542767D03*
X216967767Y-77902767D03*
%TD*%
%TO.C,C4*%
X210567767Y-85032767D03*
X210567767Y-84392767D03*
%TD*%
D11*
%TO.C,C2*%
X219867767Y-74547767D03*
X219867767Y-75187767D03*
%TD*%
D12*
%TO.C,U1*%
X217605267Y-76317767D03*
X217605267Y-75367767D03*
X217605267Y-74417767D03*
X215330267Y-74417767D03*
X215330267Y-76317767D03*
%TD*%
D13*
%TO.C,D2*%
X222267767Y-71767767D03*
X223667767Y-71767767D03*
%TD*%
D14*
%TO.C,U2*%
X208894267Y-77971767D03*
X208894267Y-80511767D03*
X208894267Y-83051767D03*
X208894267Y-85591767D03*
X208894267Y-88131767D03*
X208894267Y-90671767D03*
X208894267Y-93211767D03*
X208894267Y-95751767D03*
X229214267Y-95751767D03*
X229214267Y-93211767D03*
X229214267Y-90671767D03*
X229214267Y-88131767D03*
X229214267Y-85591767D03*
D15*
X229214267Y-83051767D03*
D14*
X229214267Y-80511767D03*
X229214267Y-77971767D03*
X229214267Y-75431767D03*
X226674267Y-75431767D03*
X224134267Y-75431767D03*
%TD*%
D16*
%TO.C,R4*%
X213847767Y-83567767D03*
X214487767Y-83567767D03*
%TD*%
D17*
%TO.C,R3*%
X212387767Y-83567767D03*
X211747767Y-83567767D03*
%TD*%
D18*
%TO.C,U3*%
X213567767Y-92267767D03*
X214837767Y-92267767D03*
X216107767Y-92267767D03*
X217377767Y-92267767D03*
X217377767Y-85092767D03*
X216107767Y-85092767D03*
X214837767Y-85092767D03*
X213567767Y-85092767D03*
%TD*%
D17*
%TO.C,R1*%
X215742767Y-77767767D03*
X215102767Y-77767767D03*
%TD*%
%TO.C,D1*%
X215732767Y-78667767D03*
X215092767Y-78667767D03*
%TD*%
D10*
%TO.C,C1*%
X212967767Y-75187767D03*
X212967767Y-74547767D03*
%TD*%
M02*
