%TF.GenerationSoftware,KiCad,Pcbnew,9.0.6*%
%TF.CreationDate,2025-11-18T16:50:13-05:00*%
%TF.ProjectId,Rev. 3,5265762e-2033-42e6-9b69-6361645f7063,rev?*%
%TF.SameCoordinates,Original*%
%TF.FileFunction,Legend,Top*%
%TF.FilePolarity,Positive*%
%FSLAX46Y46*%
G04 Gerber Fmt 4.6, Leading zero omitted, Abs format (unit mm)*
G04 Created by KiCad (PCBNEW 9.0.6) date 2025-11-18 16:50:13*
%MOMM*%
%LPD*%
G01*
G04 APERTURE LIST*
%ADD10C,0.150000*%
%ADD11C,0.120000*%
%ADD12C,0.100000*%
G04 APERTURE END LIST*
D10*
X211327586Y-89442171D02*
X212137109Y-89442171D01*
X212137109Y-89442171D02*
X212232347Y-89394552D01*
X212232347Y-89394552D02*
X212279967Y-89346933D01*
X212279967Y-89346933D02*
X212327586Y-89251695D01*
X212327586Y-89251695D02*
X212327586Y-89061219D01*
X212327586Y-89061219D02*
X212279967Y-88965981D01*
X212279967Y-88965981D02*
X212232347Y-88918362D01*
X212232347Y-88918362D02*
X212137109Y-88870743D01*
X212137109Y-88870743D02*
X211327586Y-88870743D01*
X211327586Y-88489790D02*
X211327586Y-87870743D01*
X211327586Y-87870743D02*
X211708538Y-88204076D01*
X211708538Y-88204076D02*
X211708538Y-88061219D01*
X211708538Y-88061219D02*
X211756157Y-87965981D01*
X211756157Y-87965981D02*
X211803776Y-87918362D01*
X211803776Y-87918362D02*
X211899014Y-87870743D01*
X211899014Y-87870743D02*
X212137109Y-87870743D01*
X212137109Y-87870743D02*
X212232347Y-87918362D01*
X212232347Y-87918362D02*
X212279967Y-87965981D01*
X212279967Y-87965981D02*
X212327586Y-88061219D01*
X212327586Y-88061219D02*
X212327586Y-88346933D01*
X212327586Y-88346933D02*
X212279967Y-88442171D01*
X212279967Y-88442171D02*
X212232347Y-88489790D01*
D11*
%TO.C,U1*%
X215557767Y-73807767D02*
X217377767Y-73807767D01*
X215557767Y-73857767D02*
X215557767Y-73807767D01*
X215557767Y-75757767D02*
X215557767Y-74977767D01*
X215557767Y-76927767D02*
X215557767Y-76877767D01*
X217377767Y-73807767D02*
X217377767Y-73857767D01*
X217377767Y-76877767D02*
X217377767Y-76927767D01*
X217377767Y-76927767D02*
X215557767Y-76927767D01*
X218157767Y-77207767D02*
X217677767Y-77207767D01*
X217917767Y-76877767D01*
X218157767Y-77207767D01*
G36*
X218157767Y-77207767D02*
G01*
X217677767Y-77207767D01*
X217917767Y-76877767D01*
X218157767Y-77207767D01*
G37*
%TO.C,D2*%
X221707767Y-71167767D02*
X221707767Y-72367767D01*
X223667767Y-71167767D02*
X221707767Y-71167767D01*
X223667767Y-72367767D02*
X221707767Y-72367767D01*
%TO.C,U3*%
X212712767Y-85920267D02*
X212982767Y-85920267D01*
X212712767Y-91440267D02*
X212712767Y-85920267D01*
X212982767Y-91440267D02*
X212712767Y-91440267D01*
X217962767Y-85920267D02*
X218232767Y-85920267D01*
X218232767Y-85920267D02*
X218232767Y-91440267D01*
X218232767Y-91440267D02*
X217962767Y-91440267D01*
X212972767Y-92270267D02*
X212502767Y-92610267D01*
X212502767Y-91930267D01*
X212972767Y-92270267D01*
G36*
X212972767Y-92270267D02*
G01*
X212502767Y-92610267D01*
X212502767Y-91930267D01*
X212972767Y-92270267D01*
G37*
D12*
%TO.C,D1*%
X216322767Y-78667767D02*
G75*
G02*
X216222767Y-78667767I-50000J0D01*
G01*
X216222767Y-78667767D02*
G75*
G02*
X216322767Y-78667767I50000J0D01*
G01*
%TD*%
M02*
