%TF.GenerationSoftware,KiCad,Pcbnew,9.0.6*%
%TF.CreationDate,2025-11-18T16:50:12-05:00*%
%TF.ProjectId,Rev. 3,5265762e-2033-42e6-9b69-6361645f7063,rev?*%
%TF.SameCoordinates,Original*%
%TF.FileFunction,Copper,L4,Bot*%
%TF.FilePolarity,Positive*%
%FSLAX46Y46*%
G04 Gerber Fmt 4.6, Leading zero omitted, Abs format (unit mm)*
G04 Created by KiCad (PCBNEW 9.0.6) date 2025-11-18 16:50:12*
%MOMM*%
%LPD*%
G01*
G04 APERTURE LIST*
%TA.AperFunction,ComponentPad*%
%ADD10C,1.727200*%
%TD*%
%TA.AperFunction,ComponentPad*%
%ADD11R,1.727200X1.727200*%
%TD*%
%TA.AperFunction,SMDPad,CuDef*%
%ADD12R,3.510000X2.820000*%
%TD*%
%TA.AperFunction,ViaPad*%
%ADD13C,0.600000*%
%TD*%
%TA.AperFunction,Conductor*%
%ADD14C,0.200000*%
%TD*%
G04 APERTURE END LIST*
D10*
%TO.P,U2,1,A0*%
%TO.N,10{slash}A0*%
X208894267Y-77971767D03*
%TO.P,U2,2,A1*%
%TO.N,11{slash}A1*%
X208894267Y-80511767D03*
%TO.P,U2,3,SCLK*%
%TO.N,9{slash}SCLK*%
X208894267Y-83051767D03*
%TO.P,U2,4,CIPO*%
%TO.N,7{slash}CIPO*%
X208894267Y-85591767D03*
%TO.P,U2,5,COPI*%
%TO.N,8{slash}COPI*%
X208894267Y-88131767D03*
%TO.P,U2,6,CS*%
%TO.N,6{slash}CS*%
X208894267Y-90671767D03*
%TO.P,U2,7,NC*%
%TO.N,unconnected-(U2-NC-Pad7)*%
X208894267Y-93211767D03*
%TO.P,U2,8,LPIO0*%
%TO.N,5{slash}LPIO0*%
X208894267Y-95751767D03*
%TO.P,U2,9,SDA1*%
%TO.N,4{slash}SDA1*%
X229214267Y-95751767D03*
%TO.P,U2,10,SCL1*%
%TO.N,3{slash}SCL1*%
X229214267Y-93211767D03*
%TO.P,U2,11,TX*%
%TO.N,2{slash}LPIO1{slash}TX*%
X229214267Y-90671767D03*
%TO.P,U2,12,RX*%
%TO.N,1{slash}LPIO2{slash}RX*%
X229214267Y-88131767D03*
%TO.P,U2,13,LPIO3*%
%TO.N,0{slash}LPIO3*%
X229214267Y-85591767D03*
D11*
%TO.P,U2,14,GND*%
%TO.N,GND*%
X229214267Y-83051767D03*
D10*
%TO.P,U2,15,VDDIO_EXT*%
%TO.N,VDDIO_EXT*%
X229214267Y-80511767D03*
%TO.P,U2,16,NC*%
%TO.N,unconnected-(U2-NC-Pad16)*%
X229214267Y-77971767D03*
%TO.P,U2,17,VIN*%
%TO.N,VIN*%
X229214267Y-75431767D03*
%TO.P,U2,18,NTC*%
%TO.N,unconnected-(U2-NTC-Pad18)*%
X226674267Y-75431767D03*
%TO.P,U2,19,VBAT*%
%TO.N,VBAT*%
X224134267Y-75431767D03*
%TD*%
D12*
%TO.P,BT1,N*%
%TO.N,GND*%
X219167767Y-98227767D03*
%TO.P,BT1,P*%
%TO.N,DIODE*%
X219167767Y-72367767D03*
%TD*%
D13*
%TO.N,GND*%
X210581165Y-82267767D03*
X221300000Y-76900000D03*
X219167767Y-96067767D03*
%TO.N,VBAT*%
X213867767Y-82467767D03*
X224100000Y-82500000D03*
%TO.N,Net-(U3-~{WP}{slash}IO_{2})*%
X211767767Y-84432767D03*
X211767767Y-95267767D03*
%TO.N,DIODE*%
X219200000Y-71300000D03*
%TD*%
D14*
%TO.N,GND*%
X228451767Y-83051767D02*
X222300000Y-76900000D01*
X219167767Y-98227767D02*
X219167767Y-93098267D01*
X210567767Y-82254369D02*
X210567767Y-77567767D01*
X210581165Y-82267767D02*
X210567767Y-82254369D01*
X219167767Y-96067767D02*
X219167767Y-98227767D01*
X219167767Y-93098267D02*
X229214267Y-83051767D01*
X229214267Y-83051767D02*
X228451767Y-83051767D01*
X222300000Y-76900000D02*
X221300000Y-76900000D01*
X210567767Y-77567767D02*
X211267767Y-76867767D01*
%TO.N,VBAT*%
X213900000Y-82500000D02*
X213867767Y-82467767D01*
X224100000Y-82500000D02*
X213900000Y-82500000D01*
%TO.N,Net-(U3-~{WP}{slash}IO_{2})*%
X211767767Y-84432767D02*
X211767767Y-95267767D01*
%TO.N,DIODE*%
X219167767Y-72367767D02*
X219167767Y-71332233D01*
X219167767Y-71332233D02*
X219200000Y-71300000D01*
%TD*%
%TA.AperFunction,Conductor*%
%TO.N,DIODE*%
G36*
X222510806Y-70787452D02*
G01*
X222556561Y-70840256D01*
X222567767Y-70891767D01*
X222567767Y-74638267D01*
X222548082Y-74705306D01*
X222495278Y-74751061D01*
X222443767Y-74762267D01*
X217041767Y-74762267D01*
X216974728Y-74742582D01*
X216928973Y-74689778D01*
X216917767Y-74638267D01*
X216917767Y-74279513D01*
X216937452Y-74212474D01*
X216990256Y-74166719D01*
X217059414Y-74156775D01*
X217116078Y-74180247D01*
X217170673Y-74221117D01*
X217170680Y-74221121D01*
X217305387Y-74271363D01*
X217305394Y-74271365D01*
X217364922Y-74277766D01*
X217364939Y-74277767D01*
X218917767Y-74277767D01*
X219417767Y-74277767D01*
X220970595Y-74277767D01*
X220970611Y-74277766D01*
X221030139Y-74271365D01*
X221030146Y-74271363D01*
X221164853Y-74221121D01*
X221164860Y-74221117D01*
X221279954Y-74134957D01*
X221279957Y-74134954D01*
X221366117Y-74019860D01*
X221366121Y-74019853D01*
X221416363Y-73885146D01*
X221416365Y-73885139D01*
X221422766Y-73825611D01*
X221422767Y-73825594D01*
X221422767Y-72617767D01*
X219417767Y-72617767D01*
X219417767Y-74277767D01*
X218917767Y-74277767D01*
X218917767Y-72491767D01*
X218937452Y-72424728D01*
X218990256Y-72378973D01*
X219041767Y-72367767D01*
X219167767Y-72367767D01*
X219167767Y-72241767D01*
X219187452Y-72174728D01*
X219240256Y-72128973D01*
X219291767Y-72117767D01*
X221422767Y-72117767D01*
X221422767Y-70909939D01*
X221422766Y-70909932D01*
X221422239Y-70905027D01*
X221434642Y-70836267D01*
X221482250Y-70785128D01*
X221545528Y-70767767D01*
X222443767Y-70767767D01*
X222510806Y-70787452D01*
G37*
%TD.AperFunction*%
%TD*%
%TA.AperFunction,Conductor*%
%TO.N,GND*%
G36*
X222510806Y-74987452D02*
G01*
X222556561Y-75040256D01*
X222567767Y-75091767D01*
X222567767Y-78943767D01*
X222548082Y-79010806D01*
X222495278Y-79056561D01*
X222443767Y-79067767D01*
X217467767Y-79067767D01*
X210691767Y-79067767D01*
X210624728Y-79048082D01*
X210578973Y-78995278D01*
X210567767Y-78943767D01*
X210567767Y-75091767D01*
X210587452Y-75024728D01*
X210640256Y-74978973D01*
X210691767Y-74967767D01*
X222443767Y-74967767D01*
X222510806Y-74987452D01*
G37*
%TD.AperFunction*%
%TD*%
%TA.AperFunction,Conductor*%
%TO.N,VIN*%
G36*
X215967578Y-70787452D02*
G01*
X216013333Y-70840256D01*
X216024539Y-70891767D01*
X216024539Y-74638267D01*
X216004854Y-74705306D01*
X215952050Y-74751061D01*
X215900539Y-74762267D01*
X210698539Y-74762267D01*
X210631500Y-74742582D01*
X210585745Y-74689778D01*
X210574539Y-74638267D01*
X210574539Y-70891767D01*
X210594224Y-70824728D01*
X210647028Y-70778973D01*
X210698539Y-70767767D01*
X215900539Y-70767767D01*
X215967578Y-70787452D01*
G37*
%TD.AperFunction*%
%TD*%
M02*
