%TF.GenerationSoftware,KiCad,Pcbnew,9.0.6*%
%TF.CreationDate,2025-11-18T16:50:12-05:00*%
%TF.ProjectId,Rev. 3,5265762e-2033-42e6-9b69-6361645f7063,rev?*%
%TF.SameCoordinates,Original*%
%TF.FileFunction,Copper,L1,Top*%
%TF.FilePolarity,Positive*%
%FSLAX46Y46*%
G04 Gerber Fmt 4.6, Leading zero omitted, Abs format (unit mm)*
G04 Created by KiCad (PCBNEW 9.0.6) date 2025-11-18 16:50:12*
%MOMM*%
%LPD*%
G01*
G04 APERTURE LIST*
G04 Aperture macros list*
%AMRoundRect*
0 Rectangle with rounded corners*
0 $1 Rounding radius*
0 $2 $3 $4 $5 $6 $7 $8 $9 X,Y pos of 4 corners*
0 Add a 4 corners polygon primitive as box body*
4,1,4,$2,$3,$4,$5,$6,$7,$8,$9,$2,$3,0*
0 Add four circle primitives for the rounded corners*
1,1,$1+$1,$2,$3*
1,1,$1+$1,$4,$5*
1,1,$1+$1,$6,$7*
1,1,$1+$1,$8,$9*
0 Add four rect primitives between the rounded corners*
20,1,$1+$1,$2,$3,$4,$5,0*
20,1,$1+$1,$4,$5,$6,$7,0*
20,1,$1+$1,$6,$7,$8,$9,0*
20,1,$1+$1,$8,$9,$2,$3,0*%
G04 Aperture macros list end*
%TA.AperFunction,SMDPad,CuDef*%
%ADD10RoundRect,0.100000X0.100000X-0.130000X0.100000X0.130000X-0.100000X0.130000X-0.100000X-0.130000X0*%
%TD*%
%TA.AperFunction,SMDPad,CuDef*%
%ADD11RoundRect,0.100000X-0.100000X0.130000X-0.100000X-0.130000X0.100000X-0.130000X0.100000X0.130000X0*%
%TD*%
%TA.AperFunction,SMDPad,CuDef*%
%ADD12RoundRect,0.150000X0.512500X0.150000X-0.512500X0.150000X-0.512500X-0.150000X0.512500X-0.150000X0*%
%TD*%
%TA.AperFunction,SMDPad,CuDef*%
%ADD13RoundRect,0.150000X0.150000X0.200000X-0.150000X0.200000X-0.150000X-0.200000X0.150000X-0.200000X0*%
%TD*%
%TA.AperFunction,ComponentPad*%
%ADD14C,1.727200*%
%TD*%
%TA.AperFunction,ComponentPad*%
%ADD15R,1.727200X1.727200*%
%TD*%
%TA.AperFunction,SMDPad,CuDef*%
%ADD16RoundRect,0.100000X-0.130000X-0.100000X0.130000X-0.100000X0.130000X0.100000X-0.130000X0.100000X0*%
%TD*%
%TA.AperFunction,SMDPad,CuDef*%
%ADD17RoundRect,0.100000X0.130000X0.100000X-0.130000X0.100000X-0.130000X-0.100000X0.130000X-0.100000X0*%
%TD*%
%TA.AperFunction,SMDPad,CuDef*%
%ADD18RoundRect,0.162500X0.162500X-0.650000X0.162500X0.650000X-0.162500X0.650000X-0.162500X-0.650000X0*%
%TD*%
%TA.AperFunction,ViaPad*%
%ADD19C,0.600000*%
%TD*%
%TA.AperFunction,Conductor*%
%ADD20C,0.200000*%
%TD*%
G04 APERTURE END LIST*
D10*
%TO.P,R2,1*%
%TO.N,Net-(D1-K)*%
X216967767Y-78542767D03*
%TO.P,R2,2*%
%TO.N,Net-(U1-STAT)*%
X216967767Y-77902767D03*
%TD*%
%TO.P,C4,1*%
%TO.N,VBAT*%
X210567767Y-85032767D03*
%TO.P,C4,2*%
%TO.N,GND*%
X210567767Y-84392767D03*
%TD*%
D11*
%TO.P,C2,1*%
%TO.N,DIODE*%
X219867767Y-74547767D03*
%TO.P,C2,2*%
%TO.N,GND*%
X219867767Y-75187767D03*
%TD*%
D12*
%TO.P,U1,1,STAT*%
%TO.N,Net-(U1-STAT)*%
X217605267Y-76317767D03*
%TO.P,U1,2,V_{SS}*%
%TO.N,GND*%
X217605267Y-75367767D03*
%TO.P,U1,3,V_{BAT}*%
%TO.N,DIODE*%
X217605267Y-74417767D03*
%TO.P,U1,4,V_{DD}*%
%TO.N,VIN*%
X215330267Y-74417767D03*
%TO.P,U1,5,PROG*%
%TO.N,Net-(U1-PROG)*%
X215330267Y-76317767D03*
%TD*%
D13*
%TO.P,D2,1,K*%
%TO.N,DIODE*%
X222267767Y-71767767D03*
%TO.P,D2,2,A*%
%TO.N,VBAT*%
X223667767Y-71767767D03*
%TD*%
D14*
%TO.P,U2,1,A0*%
%TO.N,10{slash}A0*%
X208894267Y-77971767D03*
%TO.P,U2,2,A1*%
%TO.N,11{slash}A1*%
X208894267Y-80511767D03*
%TO.P,U2,3,SCLK*%
%TO.N,9{slash}SCLK*%
X208894267Y-83051767D03*
%TO.P,U2,4,CIPO*%
%TO.N,7{slash}CIPO*%
X208894267Y-85591767D03*
%TO.P,U2,5,COPI*%
%TO.N,8{slash}COPI*%
X208894267Y-88131767D03*
%TO.P,U2,6,CS*%
%TO.N,6{slash}CS*%
X208894267Y-90671767D03*
%TO.P,U2,7,NC*%
%TO.N,unconnected-(U2-NC-Pad7)*%
X208894267Y-93211767D03*
%TO.P,U2,8,LPIO0*%
%TO.N,5{slash}LPIO0*%
X208894267Y-95751767D03*
%TO.P,U2,9,SDA1*%
%TO.N,4{slash}SDA1*%
X229214267Y-95751767D03*
%TO.P,U2,10,SCL1*%
%TO.N,3{slash}SCL1*%
X229214267Y-93211767D03*
%TO.P,U2,11,TX*%
%TO.N,2{slash}LPIO1{slash}TX*%
X229214267Y-90671767D03*
%TO.P,U2,12,RX*%
%TO.N,1{slash}LPIO2{slash}RX*%
X229214267Y-88131767D03*
%TO.P,U2,13,LPIO3*%
%TO.N,0{slash}LPIO3*%
X229214267Y-85591767D03*
D15*
%TO.P,U2,14,GND*%
%TO.N,GND*%
X229214267Y-83051767D03*
D14*
%TO.P,U2,15,VDDIO_EXT*%
%TO.N,VDDIO_EXT*%
X229214267Y-80511767D03*
%TO.P,U2,16,NC*%
%TO.N,unconnected-(U2-NC-Pad16)*%
X229214267Y-77971767D03*
%TO.P,U2,17,VIN*%
%TO.N,VIN*%
X229214267Y-75431767D03*
%TO.P,U2,18,NTC*%
%TO.N,unconnected-(U2-NTC-Pad18)*%
X226674267Y-75431767D03*
%TO.P,U2,19,VBAT*%
%TO.N,VBAT*%
X224134267Y-75431767D03*
%TD*%
D16*
%TO.P,R4,1*%
%TO.N,VBAT*%
X213847767Y-83567767D03*
%TO.P,R4,2*%
%TO.N,Net-(U3-~{HOLD}{slash}~{RESET}{slash}IO_{3})*%
X214487767Y-83567767D03*
%TD*%
D17*
%TO.P,R3,1*%
%TO.N,VBAT*%
X212387767Y-83567767D03*
%TO.P,R3,2*%
%TO.N,Net-(U3-~{WP}{slash}IO_{2})*%
X211747767Y-83567767D03*
%TD*%
D18*
%TO.P,U3,1,~{CS}*%
%TO.N,6{slash}CS*%
X213567767Y-92267767D03*
%TO.P,U3,2,DO/IO_{1}*%
%TO.N,8{slash}COPI*%
X214837767Y-92267767D03*
%TO.P,U3,3,~{WP}/IO_{2}*%
%TO.N,Net-(U3-~{WP}{slash}IO_{2})*%
X216107767Y-92267767D03*
%TO.P,U3,4,GND*%
%TO.N,GND*%
X217377767Y-92267767D03*
%TO.P,U3,5,DI/IO_{0}*%
%TO.N,7{slash}CIPO*%
X217377767Y-85092767D03*
%TO.P,U3,6,CLK*%
%TO.N,9{slash}SCLK*%
X216107767Y-85092767D03*
%TO.P,U3,7,~{HOLD}/~{RESET}/IO_{3}*%
%TO.N,Net-(U3-~{HOLD}{slash}~{RESET}{slash}IO_{3})*%
X214837767Y-85092767D03*
%TO.P,U3,8,VCC*%
%TO.N,VBAT*%
X213567767Y-85092767D03*
%TD*%
D17*
%TO.P,R1,1*%
%TO.N,Net-(U1-PROG)*%
X215742767Y-77767767D03*
%TO.P,R1,2*%
%TO.N,GND*%
X215102767Y-77767767D03*
%TD*%
%TO.P,D1,1,K*%
%TO.N,Net-(D1-K)*%
X215732767Y-78667767D03*
%TO.P,D1,2,A*%
%TO.N,VIN*%
X215092767Y-78667767D03*
%TD*%
D10*
%TO.P,C1,1*%
%TO.N,GND*%
X212967767Y-75187767D03*
%TO.P,C1,2*%
%TO.N,VIN*%
X212967767Y-74547767D03*
%TD*%
D19*
%TO.N,GND*%
X210581165Y-82267767D03*
X221300000Y-76900000D03*
X219167767Y-96067767D03*
%TO.N,VBAT*%
X213867767Y-82467767D03*
X224100000Y-82500000D03*
%TO.N,Net-(U3-~{WP}{slash}IO_{2})*%
X211767767Y-84432767D03*
X211767767Y-95267767D03*
%TO.N,DIODE*%
X219200000Y-71300000D03*
%TD*%
D20*
%TO.N,GND*%
X217377767Y-94277767D02*
X219167767Y-96067767D01*
X217377767Y-92267767D02*
X217377767Y-94277767D01*
X210567767Y-82281165D02*
X210581165Y-82267767D01*
X210567767Y-84392767D02*
X210567767Y-82281165D01*
%TO.N,Net-(U1-PROG)*%
X215742767Y-76730267D02*
X215330267Y-76317767D01*
X215742767Y-77767767D02*
X215742767Y-76730267D01*
%TO.N,VIN*%
X213700000Y-70200000D02*
X213700000Y-71500000D01*
X229214267Y-71114267D02*
X228200000Y-70100000D01*
X228200000Y-70100000D02*
X227900000Y-69800000D01*
X227900000Y-69800000D02*
X214000000Y-69800000D01*
X214000000Y-69800000D02*
X213700000Y-70100000D01*
X213700000Y-70100000D02*
X213700000Y-70200000D01*
X229214267Y-75431767D02*
X229214267Y-71114267D01*
%TO.N,VBAT*%
X213507767Y-85032767D02*
X213567767Y-85092767D01*
X224134267Y-75431767D02*
X224134267Y-72234267D01*
X213847767Y-83567767D02*
X212387767Y-83567767D01*
X213847767Y-83567767D02*
X213847767Y-82487767D01*
X213567767Y-85092767D02*
X213567767Y-84947767D01*
X224134267Y-72234267D02*
X223667767Y-71767767D01*
X224134267Y-75431767D02*
X224134267Y-82465733D01*
X224134267Y-82465733D02*
X224100000Y-82500000D01*
X213847767Y-82487767D02*
X213867767Y-82467767D01*
X213567767Y-83847767D02*
X213847767Y-83567767D01*
X213567767Y-85092767D02*
X213567767Y-83847767D01*
X210567767Y-85032767D02*
X213507767Y-85032767D01*
%TO.N,Net-(D1-K)*%
X215732767Y-78667767D02*
X216842767Y-78667767D01*
X216842767Y-78667767D02*
X216967767Y-78542767D01*
%TO.N,Net-(U1-STAT)*%
X216967767Y-76955267D02*
X217605267Y-76317767D01*
X216967767Y-77902767D02*
X216967767Y-76955267D01*
%TO.N,Net-(U3-~{WP}{slash}IO_{2})*%
X211767767Y-95267767D02*
X213310257Y-95267767D01*
X211747767Y-84412767D02*
X211767767Y-84432767D01*
X213310257Y-95267767D02*
X216107767Y-92470257D01*
X211747767Y-83767767D02*
X211747767Y-84412767D01*
X216107767Y-92470257D02*
X216107767Y-92267767D01*
%TO.N,Net-(U3-~{HOLD}{slash}~{RESET}{slash}IO_{3})*%
X214837767Y-83917767D02*
X214487767Y-83567767D01*
X214837767Y-85092767D02*
X214837767Y-83917767D01*
%TO.N,7{slash}CIPO*%
X217377767Y-85295257D02*
X217377767Y-85092767D01*
X209508767Y-86206267D02*
X216466757Y-86206267D01*
X216466757Y-86206267D02*
X217377767Y-85295257D01*
X217377767Y-84890277D02*
X217377767Y-85092767D01*
X208894267Y-85591767D02*
X209508767Y-86206267D01*
%TO.N,6{slash}CS*%
X211971767Y-90671767D02*
X213567767Y-92267767D01*
X208894267Y-90671767D02*
X211971767Y-90671767D01*
%TO.N,9{slash}SCLK*%
X215067767Y-81667767D02*
X216107767Y-82707767D01*
X208894267Y-83051767D02*
X210267767Y-81678267D01*
X210267767Y-81678267D02*
X210267767Y-81667767D01*
X216107767Y-82707767D02*
X216107767Y-85092767D01*
X210267767Y-81667767D02*
X215067767Y-81667767D01*
%TO.N,8{slash}COPI*%
X214837767Y-92065277D02*
X214837767Y-92267767D01*
X208894267Y-88131767D02*
X210904257Y-88131767D01*
X210904257Y-88131767D02*
X214837767Y-92065277D01*
%TD*%
%TA.AperFunction,Conductor*%
%TO.N,VIN*%
G36*
X215943039Y-70819685D02*
G01*
X215988794Y-70872489D01*
X216000000Y-70924000D01*
X216000000Y-73493767D01*
X215980315Y-73560806D01*
X215927511Y-73606561D01*
X215876000Y-73617767D01*
X215580267Y-73617767D01*
X215580267Y-74293767D01*
X215560582Y-74360806D01*
X215507778Y-74406561D01*
X215456267Y-74417767D01*
X215330267Y-74417767D01*
X215330267Y-74543767D01*
X215310582Y-74610806D01*
X215257778Y-74656561D01*
X215206267Y-74667767D01*
X214170472Y-74667767D01*
X214169913Y-74668371D01*
X214155989Y-74734650D01*
X214106937Y-74784406D01*
X214046736Y-74800000D01*
X213765719Y-74800000D01*
X213698680Y-74780315D01*
X213672492Y-74757760D01*
X213663728Y-74747767D01*
X212271807Y-74747767D01*
X212263043Y-74757760D01*
X212204041Y-74795183D01*
X212169816Y-74800000D01*
X211100000Y-74800000D01*
X211100000Y-77500000D01*
X211900000Y-78400000D01*
X214255141Y-78400000D01*
X214322180Y-78419685D01*
X214348369Y-78442241D01*
X214370755Y-78467767D01*
X214968767Y-78467767D01*
X214977452Y-78470317D01*
X214986414Y-78469029D01*
X215010454Y-78480007D01*
X215035806Y-78487452D01*
X215041733Y-78494292D01*
X215049970Y-78498054D01*
X215064259Y-78520288D01*
X215081561Y-78540256D01*
X215083848Y-78550770D01*
X215087744Y-78556832D01*
X215092767Y-78591767D01*
X215092767Y-78743767D01*
X215073082Y-78810806D01*
X215020278Y-78856561D01*
X214968767Y-78867767D01*
X214363755Y-78867767D01*
X214320530Y-78895183D01*
X214286305Y-78900000D01*
X211654854Y-78900000D01*
X211587815Y-78880315D01*
X211563101Y-78859411D01*
X210632247Y-77835471D01*
X210601717Y-77772625D01*
X210600000Y-77752060D01*
X210600000Y-74347767D01*
X212271805Y-74347767D01*
X212767767Y-74347767D01*
X213167767Y-74347767D01*
X213663726Y-74347767D01*
X213663727Y-74347765D01*
X213652324Y-74261139D01*
X213651672Y-74259565D01*
X213651671Y-74259562D01*
X213613648Y-74167765D01*
X214170471Y-74167765D01*
X214170472Y-74167767D01*
X215080267Y-74167767D01*
X215080267Y-73617767D01*
X214752117Y-73617767D01*
X214715277Y-73620666D01*
X214715271Y-73620667D01*
X214557573Y-73666483D01*
X214557570Y-73666484D01*
X214416214Y-73750081D01*
X214416205Y-73750088D01*
X214300088Y-73866205D01*
X214300081Y-73866214D01*
X214216485Y-74007568D01*
X214170666Y-74165280D01*
X214170471Y-74167765D01*
X213613648Y-74167765D01*
X213591867Y-74115180D01*
X213495691Y-73989842D01*
X213370353Y-73893666D01*
X213224398Y-73833211D01*
X213167767Y-73825754D01*
X213167767Y-74347767D01*
X212767767Y-74347767D01*
X212767767Y-73825754D01*
X212711135Y-73833211D01*
X212565180Y-73893666D01*
X212439842Y-73989842D01*
X212343666Y-74115180D01*
X212283212Y-74261132D01*
X212283211Y-74261136D01*
X212271805Y-74347767D01*
X210600000Y-74347767D01*
X210600000Y-70924000D01*
X210619685Y-70856961D01*
X210672489Y-70811206D01*
X210724000Y-70800000D01*
X215876000Y-70800000D01*
X215943039Y-70819685D01*
G37*
%TD.AperFunction*%
%TD*%
%TA.AperFunction,Conductor*%
%TO.N,GND*%
G36*
X216390949Y-74987452D02*
G01*
X216436704Y-75040256D01*
X216446648Y-75109414D01*
X216445891Y-75114052D01*
X216445666Y-75115279D01*
X216445471Y-75117766D01*
X216445472Y-75117767D01*
X218765062Y-75117767D01*
X218765062Y-75117766D01*
X218764867Y-75115279D01*
X218764643Y-75114052D01*
X218764716Y-75113357D01*
X218764370Y-75108959D01*
X218765185Y-75108894D01*
X218766750Y-75094039D01*
X218763886Y-75074120D01*
X218770333Y-75060000D01*
X218771959Y-75044567D01*
X218784550Y-75028871D01*
X218792911Y-75010564D01*
X218805968Y-75002172D01*
X218815680Y-74990067D01*
X218834759Y-74983670D01*
X218851689Y-74972790D01*
X218878861Y-74968883D01*
X218881925Y-74967856D01*
X218886624Y-74967767D01*
X219098083Y-74967767D01*
X219165122Y-74987452D01*
X219165488Y-74987767D01*
X220579288Y-74987767D01*
X220603223Y-74972585D01*
X220637451Y-74967767D01*
X222443767Y-74967767D01*
X222510806Y-74987452D01*
X222556561Y-75040256D01*
X222567767Y-75091767D01*
X222567767Y-78943767D01*
X222548082Y-79010806D01*
X222495278Y-79056561D01*
X222443767Y-79067767D01*
X217591767Y-79067767D01*
X217524728Y-79048082D01*
X217478973Y-78995278D01*
X217467767Y-78943767D01*
X217467767Y-77367767D01*
X217392267Y-77367767D01*
X217383581Y-77365216D01*
X217374620Y-77366505D01*
X217350579Y-77355526D01*
X217325228Y-77348082D01*
X217319300Y-77341241D01*
X217311064Y-77337480D01*
X217296774Y-77315245D01*
X217279473Y-77295278D01*
X217277185Y-77284763D01*
X217273290Y-77278702D01*
X217268267Y-77243767D01*
X217268267Y-77131100D01*
X217287952Y-77064061D01*
X217304586Y-77043419D01*
X217493419Y-76854586D01*
X217554742Y-76821101D01*
X217581100Y-76818267D01*
X218151028Y-76818267D01*
X218178185Y-76814310D01*
X218219160Y-76808340D01*
X218324250Y-76756965D01*
X218406965Y-76674250D01*
X218458340Y-76569160D01*
X218468267Y-76501027D01*
X218468267Y-76135799D01*
X218487952Y-76068760D01*
X218516277Y-76037812D01*
X218519328Y-76035445D01*
X218635445Y-75919328D01*
X218635452Y-75919319D01*
X218719048Y-75777965D01*
X218764867Y-75620253D01*
X218765062Y-75617768D01*
X218765062Y-75617767D01*
X216445472Y-75617767D01*
X216445471Y-75617768D01*
X216445666Y-75620253D01*
X216491485Y-75777965D01*
X216575081Y-75919319D01*
X216575088Y-75919328D01*
X216691206Y-76035446D01*
X216694264Y-76037818D01*
X216696047Y-76040287D01*
X216696727Y-76040967D01*
X216696617Y-76041076D01*
X216735173Y-76094459D01*
X216742267Y-76135800D01*
X216742267Y-76501027D01*
X216752193Y-76569159D01*
X216752193Y-76569160D01*
X216771332Y-76608310D01*
X216783090Y-76677184D01*
X216755746Y-76741480D01*
X216747614Y-76750449D01*
X216727305Y-76770758D01*
X216727302Y-76770762D01*
X216687749Y-76839271D01*
X216687746Y-76839276D01*
X216667267Y-76915706D01*
X216667267Y-77243767D01*
X216647582Y-77310806D01*
X216594778Y-77356561D01*
X216543267Y-77367767D01*
X216167267Y-77367767D01*
X216100228Y-77348082D01*
X216054473Y-77295278D01*
X216043267Y-77243767D01*
X216043267Y-76814310D01*
X216062952Y-76747271D01*
X216079581Y-76726633D01*
X216131965Y-76674250D01*
X216183340Y-76569160D01*
X216193267Y-76501027D01*
X216193267Y-76134507D01*
X216183340Y-76066374D01*
X216131965Y-75961284D01*
X216131963Y-75961282D01*
X216131963Y-75961281D01*
X216049252Y-75878570D01*
X215944158Y-75827193D01*
X215876028Y-75817267D01*
X215876027Y-75817267D01*
X214784507Y-75817267D01*
X214784506Y-75817267D01*
X214716375Y-75827193D01*
X214611281Y-75878570D01*
X214528570Y-75961281D01*
X214477193Y-76066375D01*
X214467267Y-76134506D01*
X214467267Y-76501027D01*
X214477193Y-76569158D01*
X214528570Y-76674252D01*
X214611281Y-76756963D01*
X214611282Y-76756963D01*
X214611284Y-76756965D01*
X214716374Y-76808340D01*
X214750440Y-76813303D01*
X214784506Y-76818267D01*
X214784507Y-76818267D01*
X215262412Y-76818267D01*
X215329451Y-76837952D01*
X215375206Y-76890756D01*
X215385150Y-76959914D01*
X215356125Y-77023470D01*
X215344170Y-77035496D01*
X215302767Y-77071805D01*
X215302767Y-77643767D01*
X215283082Y-77710806D01*
X215230278Y-77756561D01*
X215178767Y-77767767D01*
X215102767Y-77767767D01*
X215102767Y-77843767D01*
X215083082Y-77910806D01*
X215030278Y-77956561D01*
X214978767Y-77967767D01*
X211846428Y-77967767D01*
X211779389Y-77948082D01*
X211753749Y-77926148D01*
X211435188Y-77567767D01*
X214380754Y-77567767D01*
X214902767Y-77567767D01*
X214902767Y-77071805D01*
X214816136Y-77083211D01*
X214816132Y-77083212D01*
X214670180Y-77143666D01*
X214544842Y-77239842D01*
X214448666Y-77365180D01*
X214388211Y-77511135D01*
X214380754Y-77567767D01*
X211435188Y-77567767D01*
X211336821Y-77457104D01*
X211306995Y-77393920D01*
X211305500Y-77374723D01*
X211305500Y-75387768D01*
X212271806Y-75387768D01*
X212283209Y-75474394D01*
X212283211Y-75474400D01*
X212343666Y-75620352D01*
X212439842Y-75745691D01*
X212565181Y-75841867D01*
X212711133Y-75902322D01*
X212711139Y-75902324D01*
X212767765Y-75909778D01*
X212767767Y-75909777D01*
X213167767Y-75909777D01*
X213167768Y-75909778D01*
X213224394Y-75902324D01*
X213224400Y-75902322D01*
X213370352Y-75841867D01*
X213495691Y-75745691D01*
X213591867Y-75620353D01*
X213652321Y-75474401D01*
X213652322Y-75474397D01*
X213663728Y-75387768D01*
X219171806Y-75387768D01*
X219183209Y-75474394D01*
X219183211Y-75474400D01*
X219243666Y-75620352D01*
X219339842Y-75745691D01*
X219465181Y-75841867D01*
X219611133Y-75902322D01*
X219611139Y-75902324D01*
X219667765Y-75909778D01*
X219667767Y-75909777D01*
X220067767Y-75909777D01*
X220067768Y-75909778D01*
X220124394Y-75902324D01*
X220124400Y-75902322D01*
X220270352Y-75841867D01*
X220395691Y-75745691D01*
X220491867Y-75620353D01*
X220552321Y-75474401D01*
X220552322Y-75474397D01*
X220563728Y-75387767D01*
X220067767Y-75387767D01*
X220067767Y-75909777D01*
X219667767Y-75909777D01*
X219667767Y-75387767D01*
X219171808Y-75387767D01*
X219171806Y-75387768D01*
X213663728Y-75387768D01*
X213663728Y-75387767D01*
X213167767Y-75387767D01*
X213167767Y-75909777D01*
X212767767Y-75909777D01*
X212767767Y-75387767D01*
X212271808Y-75387767D01*
X212271806Y-75387768D01*
X211305500Y-75387768D01*
X211305500Y-75129500D01*
X211325185Y-75062461D01*
X211377989Y-75016706D01*
X211429500Y-75005500D01*
X212169803Y-75005500D01*
X212169816Y-75005500D01*
X212198457Y-75003494D01*
X212232682Y-74998677D01*
X212232686Y-74998675D01*
X212232689Y-74998675D01*
X212241607Y-74995394D01*
X212284423Y-74987767D01*
X213657953Y-74987767D01*
X213692887Y-74992789D01*
X213707821Y-74997175D01*
X213765719Y-75005500D01*
X213765723Y-75005500D01*
X214046731Y-75005500D01*
X214046736Y-75005500D01*
X214098266Y-74998934D01*
X214158467Y-74983340D01*
X214176190Y-74977886D01*
X214176191Y-74977884D01*
X214184189Y-74975424D01*
X214184593Y-74976738D01*
X214225356Y-74967767D01*
X216323910Y-74967767D01*
X216390949Y-74987452D01*
G37*
%TD.AperFunction*%
%TD*%
%TA.AperFunction,Conductor*%
%TO.N,DIODE*%
G36*
X221807354Y-70787452D02*
G01*
X221853109Y-70840256D01*
X221863053Y-70909414D01*
X221834028Y-70972970D01*
X221803436Y-70998499D01*
X221716214Y-71050081D01*
X221716205Y-71050088D01*
X221600088Y-71166205D01*
X221600081Y-71166214D01*
X221516484Y-71307570D01*
X221516483Y-71307573D01*
X221470667Y-71465271D01*
X221470666Y-71465277D01*
X221467767Y-71502117D01*
X221467767Y-71517767D01*
X222143767Y-71517767D01*
X222210806Y-71537452D01*
X222256561Y-71590256D01*
X222267767Y-71641767D01*
X222267767Y-71767767D01*
X222393767Y-71767767D01*
X222460806Y-71787452D01*
X222506561Y-71840256D01*
X222517767Y-71891767D01*
X222517767Y-72615062D01*
X222527938Y-72624464D01*
X222563805Y-72684425D01*
X222567767Y-72715520D01*
X222567767Y-74638267D01*
X222548082Y-74705306D01*
X222495278Y-74751061D01*
X222443767Y-74762267D01*
X220637438Y-74762267D01*
X220637037Y-74762281D01*
X220636982Y-74762267D01*
X220635283Y-74762267D01*
X220635283Y-74761831D01*
X220580353Y-74747767D01*
X219152599Y-74747767D01*
X219137802Y-74757274D01*
X219137345Y-74757323D01*
X219137103Y-74757477D01*
X219102867Y-74762293D01*
X219098259Y-74762292D01*
X219098083Y-74762267D01*
X218891752Y-74762267D01*
X218857367Y-74752166D01*
X218824728Y-74742582D01*
X218824723Y-74742576D01*
X218824715Y-74742574D01*
X218794412Y-74707595D01*
X218778973Y-74689778D01*
X218778971Y-74689771D01*
X218778966Y-74689765D01*
X218778945Y-74689622D01*
X218777451Y-74681169D01*
X218765062Y-74667767D01*
X217729267Y-74667767D01*
X217720581Y-74665216D01*
X217711620Y-74666505D01*
X217687579Y-74655526D01*
X217662228Y-74648082D01*
X217656300Y-74641241D01*
X217648064Y-74637480D01*
X217633774Y-74615245D01*
X217616473Y-74595278D01*
X217614185Y-74584763D01*
X217610290Y-74578702D01*
X217605267Y-74543767D01*
X217605267Y-74417767D01*
X217479267Y-74417767D01*
X217412228Y-74398082D01*
X217368630Y-74347767D01*
X219171805Y-74347767D01*
X219667767Y-74347767D01*
X220067767Y-74347767D01*
X220563726Y-74347767D01*
X220563727Y-74347765D01*
X220552324Y-74261139D01*
X220552322Y-74261133D01*
X220491867Y-74115181D01*
X220395691Y-73989842D01*
X220270353Y-73893666D01*
X220124398Y-73833211D01*
X220067767Y-73825754D01*
X220067767Y-74347767D01*
X219667767Y-74347767D01*
X219667767Y-73825754D01*
X219611135Y-73833211D01*
X219465180Y-73893666D01*
X219339842Y-73989842D01*
X219243666Y-74115180D01*
X219183212Y-74261132D01*
X219183211Y-74261136D01*
X219171805Y-74347767D01*
X217368630Y-74347767D01*
X217366473Y-74345278D01*
X217355267Y-74293767D01*
X217355267Y-74167767D01*
X217855267Y-74167767D01*
X218765062Y-74167767D01*
X218765062Y-74167765D01*
X218764867Y-74165280D01*
X218719048Y-74007568D01*
X218635452Y-73866214D01*
X218635445Y-73866205D01*
X218519328Y-73750088D01*
X218519319Y-73750081D01*
X218377963Y-73666484D01*
X218377960Y-73666483D01*
X218220262Y-73620667D01*
X218220256Y-73620666D01*
X218183416Y-73617767D01*
X217855267Y-73617767D01*
X217855267Y-74167767D01*
X217355267Y-74167767D01*
X217355267Y-73617767D01*
X217041767Y-73617767D01*
X216974728Y-73598082D01*
X216928973Y-73545278D01*
X216917767Y-73493767D01*
X216917767Y-72033416D01*
X221467767Y-72033416D01*
X221470666Y-72070256D01*
X221470667Y-72070262D01*
X221516483Y-72227960D01*
X221516484Y-72227963D01*
X221600081Y-72369319D01*
X221600088Y-72369328D01*
X221716205Y-72485445D01*
X221716214Y-72485452D01*
X221857568Y-72569048D01*
X222015281Y-72614867D01*
X222015278Y-72614867D01*
X222017765Y-72615062D01*
X222017767Y-72615062D01*
X222017767Y-72017767D01*
X221467767Y-72017767D01*
X221467767Y-72033416D01*
X216917767Y-72033416D01*
X216917767Y-70891767D01*
X216937452Y-70824728D01*
X216990256Y-70778973D01*
X217041767Y-70767767D01*
X221740315Y-70767767D01*
X221807354Y-70787452D01*
G37*
%TD.AperFunction*%
%TD*%
M02*
