M48
; DRILL file {KiCad 9.0.6} date 2025-12-15T13:22:47-0500
; FORMAT={-:-/ absolute / metric / decimal}
; #@! TF.CreationDate,2025-12-15T13:22:47-05:00
; #@! TF.GenerationSoftware,Kicad,Pcbnew,9.0.6
; #@! TF.FileFunction,Plated,1,4,PTH
FMAT,2
METRIC
; #@! TA.AperFunction,Plated,PTH,ViaDrill
T1C0.300
; #@! TA.AperFunction,Plated,PTH,ComponentDrill
T2C1.016
%
G90
G05
T1
X210.581Y-82.268
X211.768Y-84.433
X211.768Y-95.268
X213.868Y-82.468
X219.168Y-96.068
X219.2Y-71.3
X221.3Y-76.9
X224.1Y-82.5
T2
X208.894Y-77.972
X208.894Y-80.512
X208.894Y-83.052
X208.894Y-85.592
X208.894Y-88.132
X208.894Y-90.672
X208.894Y-93.212
X208.894Y-95.752
X224.134Y-75.432
X226.674Y-75.432
X229.214Y-75.432
X229.214Y-77.972
X229.214Y-80.512
X229.214Y-83.052
X229.214Y-85.592
X229.214Y-88.132
X229.214Y-90.672
X229.214Y-93.212
X229.214Y-95.752
M30
